<svg width="40" height="40" viewBox="0 0 40 40" fill="none" xmlns="http://www.w3.org/2000/svg">
<path d="M32.5 3.75H11.25C9.92519 3.75412 8.65581 4.28223 7.71901 5.21901C6.78223 6.15581 6.25412 7.42519 6.25 8.75V35C6.25 35.3315 6.3817 35.6495 6.61611 35.8839C6.85054 36.1182 7.16848 36.25 7.5 36.25H30C30.3315 36.25 30.6495 36.1182 30.8839 35.8839C31.1182 35.6495 31.25 35.3315 31.25 35C31.25 34.6685 31.1182 34.3505 30.8839 34.1161C30.6495 33.8818 30.3315 33.75 30 33.75H8.75C8.75 33.087 9.01339 32.4511 9.48224 31.9823C9.95108 31.5134 10.587 31.25 11.25 31.25H32.5C32.8315 31.25 33.1495 31.1182 33.3839 30.8839C33.6182 30.6495 33.75 30.3315 33.75 30V5C33.75 4.66848 33.6182 4.35054 33.3839 4.11611C33.1495 3.8817 32.8315 3.75 32.5 3.75ZM28.75 18.75L24.75 15.75C24.6429 15.6664 24.5109 15.621 24.375 15.621C24.2391 15.621 24.1071 15.6664 24 15.75L20 18.75V6.25H28.75V18.75Z" fill="#B1B1B1"/>
</svg>
