<svg width="40" height="40" viewBox="0 0 40 40" fill="none" xmlns="http://www.w3.org/2000/svg">
<path d="M36.5 30.5625L30.0312 6.4063C29.8592 5.7661 29.4399 5.22046 28.8656 4.88935C28.2913 4.55825 27.609 4.4688 26.9688 4.64067L22.1406 5.93755L21.9844 5.98442C21.7515 5.67891 21.4513 5.43117 21.1071 5.26046C20.763 5.08975 20.3841 5.00063 20 5.00005H15C14.5601 5.00123 14.1286 5.11991 13.75 5.3438C13.3714 5.11991 12.9399 5.00123 12.5 5.00005H7.5C6.83696 5.00005 6.20108 5.26343 5.73224 5.73228C5.26339 6.20112 5 6.83701 5 7.50005V32.5C5 33.1631 5.26339 33.799 5.73224 34.2679C6.20108 34.7366 6.83696 35 7.5 35H12.5C12.9399 34.9989 13.3714 34.8802 13.75 34.6562C14.1286 34.8802 14.5601 34.9989 15 35H20C20.663 35 21.2989 34.7366 21.7677 34.2679C22.2366 33.799 22.5 33.1631 22.5 32.5V16.9375L26.8438 33.1406C26.9853 33.6746 27.2997 34.1466 27.7379 34.483C28.176 34.8194 28.7133 35.0012 29.2656 35C29.4813 34.9962 29.696 34.9701 29.9062 34.9219L34.7344 33.625C35.3746 33.453 35.9202 33.0337 36.2514 32.4594C36.5824 31.8851 36.6719 31.2027 36.5 30.5625ZM27.6094 7.06255L28.5938 10.6719L23.7656 11.9688L22.7812 8.35942L27.6094 7.06255ZM20 7.50005V26.25H15V7.50005H20ZM12.5 7.50005V11.25H7.5V7.50005H12.5ZM20 32.5H15V28.75H20V32.5ZM34.0938 31.2031L29.2656 32.5L28.2812 28.875L33.125 27.5781L34.0938 31.2031Z" fill="#B1B1B1"/>
</svg>
