<svg width="42" height="42" viewBox="0 0 42 42" fill="none" xmlns="http://www.w3.org/2000/svg">
<g filter="url(#filter0_d_31_1606)">
<path d="M33.5 8.75005H29.1719L27.0469 5.56255C26.9338 5.38828 26.7786 5.24535 26.5956 5.14703C26.4126 5.0487 26.2078 4.99815 26 5.00005H16C15.7922 4.99815 15.5874 5.0487 15.4044 5.14703C15.2214 5.24535 15.0663 5.38828 14.9531 5.56255L12.8281 8.75005H8.5C7.5067 8.75416 6.55526 9.15058 5.85289 9.85295C5.15052 10.5553 4.75411 11.5068 4.75 12.5V30C4.75411 30.9934 5.15052 31.9448 5.85289 32.6471C6.55526 33.3495 7.5067 33.746 8.5 33.75H33.5C34.4932 33.746 35.4447 33.3495 36.1471 32.6471C36.8495 31.9448 37.2459 30.9934 37.25 30V12.5C37.2459 11.5068 36.8495 10.5553 36.1471 9.85295C35.4447 9.15058 34.4932 8.75416 33.5 8.75005ZM26.2969 25.9219C25.6027 26.6201 24.7775 27.1743 23.8684 27.5524C22.9594 27.9305 21.9845 28.1253 21 28.1253C20.0155 28.1253 19.0406 27.9305 18.1316 27.5524C17.2225 27.1743 16.3973 26.6201 15.7031 25.9219H15.6875L14.9531 25.1563L14.7344 26.4531C14.6833 26.7444 14.5319 27.0085 14.3064 27.1998C14.0809 27.391 13.7956 27.4973 13.5 27.5H13.2969C13.1347 27.4735 12.9794 27.4153 12.8398 27.3286C12.7002 27.242 12.579 27.1286 12.4832 26.9951C12.3874 26.8616 12.3189 26.7105 12.2816 26.5505C12.2442 26.3905 12.2388 26.2246 12.2656 26.0625L12.8906 22.3125C12.9352 22.0553 13.0582 21.8181 13.2428 21.6335C13.4274 21.4489 13.6646 21.3259 13.9219 21.2812L17.6719 20.6563C17.9992 20.6024 18.3346 20.6809 18.6042 20.8743C18.8737 21.0676 19.0555 21.3601 19.1094 21.6875C19.1632 22.0149 19.0849 22.3503 18.8915 22.6199C18.6981 22.8895 18.4055 23.0711 18.0781 23.125L16.6719 23.3594L17.4688 24.1875C18.4097 25.1143 19.6792 25.6311 21 25.625C21.6569 25.6283 22.3076 25.5 22.9141 25.2478C23.5206 24.9955 24.0704 24.6244 24.5312 24.1563C24.7656 23.9225 25.0831 23.7913 25.414 23.7913C25.745 23.7913 26.0625 23.9225 26.2969 24.1563C26.4145 24.2713 26.508 24.4086 26.5719 24.5602C26.6356 24.7118 26.6685 24.8746 26.6685 25.0391C26.6685 25.2036 26.6356 25.3664 26.5719 25.518C26.508 25.6696 26.4145 25.807 26.2969 25.9219ZM29.7344 15.2031L29.1094 18.9531C29.0649 19.2105 28.9419 19.4476 28.7572 19.6323C28.5726 19.8169 28.3354 19.9399 28.0781 19.9844L24.3281 20.6094H24.125C23.8294 20.6066 23.5441 20.5004 23.3186 20.3091C23.0931 20.1179 22.9418 19.8538 22.8906 19.5625C22.8639 19.4004 22.8692 19.2346 22.9066 19.0746C22.9439 18.9146 23.0124 18.7635 23.1082 18.63C23.204 18.4965 23.3251 18.3831 23.4648 18.2965C23.6044 18.2099 23.7598 18.1516 23.9219 18.125L25.3281 17.8906L24.5312 17.0625C23.5903 16.1358 22.3207 15.619 21 15.625C20.3431 15.6219 19.6924 15.7501 19.0859 16.0024C18.4794 16.2546 17.9296 16.6258 17.4688 17.0938C17.2344 17.3276 16.9169 17.4589 16.586 17.4589C16.255 17.4589 15.9375 17.3276 15.7031 17.0938C15.5855 16.9789 15.492 16.8415 15.4282 16.6899C15.3644 16.5383 15.3315 16.3755 15.3315 16.211C15.3315 16.0465 15.3644 15.8836 15.4282 15.7321C15.492 15.5805 15.5855 15.4431 15.7031 15.3281C16.3973 14.6299 17.2225 14.0758 18.1316 13.6978C19.0406 13.3196 20.0155 13.1249 21 13.1249C21.9845 13.1249 22.9594 13.3196 23.8684 13.6978C24.7775 14.0758 25.6027 14.6299 26.2969 15.3281C26.3125 15.3281 26.3125 15.3281 26.3125 15.3438L27.0469 16.0938L27.2656 14.7969C27.3195 14.4695 27.5012 14.177 27.7707 13.9836C28.0404 13.7903 28.3757 13.7118 28.7031 13.7656C29.0305 13.8195 29.3231 14.0013 29.5165 14.2709C29.7099 14.5404 29.7882 14.8758 29.7344 15.2031Z" fill="#87CDFF"/>
</g>
<defs>
<filter id="filter0_d_31_1606" x="-3" y="0" width="48" height="48" filterUnits="userSpaceOnUse" color-interpolation-filters="sRGB">
<feFlood flood-opacity="0" result="BackgroundImageFix"/>
<feColorMatrix in="SourceAlpha" type="matrix" values="0 0 0 0 0 0 0 0 0 0 0 0 0 0 0 0 0 0 127 0" result="hardAlpha"/>
<feOffset dy="4"/>
<feGaussianBlur stdDeviation="2"/>
<feComposite in2="hardAlpha" operator="out"/>
<feColorMatrix type="matrix" values="0 0 0 0 0 0 0 0 0 0 0 0 0 0 0 0 0 0 0.25 0"/>
<feBlend mode="normal" in2="BackgroundImageFix" result="effect1_dropShadow_31_1606"/>
<feBlend mode="normal" in="SourceGraphic" in2="effect1_dropShadow_31_1606" result="shape"/>
</filter>
</defs>
</svg>
