<svg width="40" height="40" viewBox="0 0 40 40" fill="none" xmlns="http://www.w3.org/2000/svg">
<path d="M32.5 8.75005H28.1719L26.0469 5.56255C25.9338 5.38828 25.7786 5.24535 25.5956 5.14703C25.4126 5.0487 25.2078 4.99815 25 5.00005H15C14.7922 4.99815 14.5874 5.0487 14.4044 5.14703C14.2214 5.24535 14.0663 5.38828 13.9531 5.56255L11.8281 8.75005H7.5C6.5067 8.75416 5.55526 9.15058 4.85289 9.85295C4.15052 10.5553 3.75411 11.5068 3.75 12.5V30C3.75411 30.9934 4.15052 31.9448 4.85289 32.6471C5.55526 33.3495 6.5067 33.746 7.5 33.75H32.5C33.4932 33.746 34.4447 33.3495 35.1471 32.6471C35.8495 31.9448 36.2459 30.9934 36.25 30V12.5C36.2459 11.5068 35.8495 10.5553 35.1471 9.85295C34.4447 9.15058 33.4932 8.75416 32.5 8.75005ZM25.2969 25.9219C24.6027 26.6201 23.7775 27.1743 22.8684 27.5524C21.9594 27.9305 20.9845 28.1253 20 28.1253C19.0155 28.1253 18.0406 27.9305 17.1316 27.5524C16.2225 27.1743 15.3973 26.6201 14.7031 25.9219H14.6875L13.9531 25.1563L13.7344 26.4531C13.6833 26.7444 13.5319 27.0085 13.3064 27.1998C13.0809 27.391 12.7956 27.4973 12.5 27.5H12.2969C12.1347 27.4735 11.9794 27.4153 11.8398 27.3286C11.7002 27.242 11.579 27.1286 11.4832 26.9951C11.3874 26.8616 11.3189 26.7105 11.2816 26.5505C11.2442 26.3905 11.2388 26.2246 11.2656 26.0625L11.8906 22.3125C11.9352 22.0553 12.0582 21.8181 12.2428 21.6335C12.4274 21.4489 12.6646 21.3259 12.9219 21.2812L16.6719 20.6563C16.9992 20.6024 17.3346 20.6809 17.6042 20.8743C17.8737 21.0676 18.0555 21.3601 18.1094 21.6875C18.1632 22.0149 18.0849 22.3503 17.8915 22.6199C17.6981 22.8895 17.4055 23.0711 17.0781 23.125L15.6719 23.3594L16.4688 24.1875C17.4097 25.1143 18.6792 25.6311 20 25.625C20.6569 25.6283 21.3076 25.5 21.9141 25.2478C22.5206 24.9955 23.0704 24.6244 23.5312 24.1563C23.7656 23.9225 24.0831 23.7913 24.414 23.7913C24.745 23.7913 25.0625 23.9225 25.2969 24.1563C25.4145 24.2713 25.508 24.4086 25.5719 24.5602C25.6356 24.7118 25.6685 24.8746 25.6685 25.0391C25.6685 25.2036 25.6356 25.3664 25.5719 25.518C25.508 25.6696 25.4145 25.807 25.2969 25.9219ZM28.7344 15.2031L28.1094 18.9531C28.0649 19.2105 27.9419 19.4476 27.7572 19.6323C27.5726 19.8169 27.3354 19.9399 27.0781 19.9844L23.3281 20.6094H23.125C22.8294 20.6066 22.5441 20.5004 22.3186 20.3091C22.0931 20.1179 21.9418 19.8538 21.8906 19.5625C21.8639 19.4004 21.8692 19.2346 21.9066 19.0746C21.9439 18.9146 22.0124 18.7635 22.1082 18.63C22.204 18.4965 22.3251 18.3831 22.4648 18.2965C22.6044 18.2099 22.7598 18.1516 22.9219 18.125L24.3281 17.8906L23.5312 17.0625C22.5903 16.1358 21.3207 15.619 20 15.625C19.3431 15.6219 18.6924 15.7501 18.0859 16.0024C17.4794 16.2546 16.9296 16.6258 16.4688 17.0938C16.2344 17.3276 15.9169 17.4589 15.586 17.4589C15.255 17.4589 14.9375 17.3276 14.7031 17.0938C14.5855 16.9789 14.492 16.8415 14.4282 16.6899C14.3644 16.5383 14.3315 16.3755 14.3315 16.211C14.3315 16.0465 14.3644 15.8836 14.4282 15.7321C14.492 15.5805 14.5855 15.4431 14.7031 15.3281C15.3973 14.6299 16.2225 14.0758 17.1316 13.6978C18.0406 13.3196 19.0155 13.1249 20 13.1249C20.9845 13.1249 21.9594 13.3196 22.8684 13.6978C23.7775 14.0758 24.6027 14.6299 25.2969 15.3281C25.3125 15.3281 25.3125 15.3281 25.3125 15.3438L26.0469 16.0938L26.2656 14.7969C26.3195 14.4695 26.5012 14.177 26.7707 13.9836C27.0404 13.7903 27.3757 13.7118 27.7031 13.7656C28.0305 13.8195 28.3231 14.0013 28.5165 14.2709C28.7099 14.5404 28.7882 14.8758 28.7344 15.2031Z" fill="#87CDFF"/>
</svg>
