<svg width="51" height="46" viewBox="0 0 51 46" fill="none" xmlns="http://www.w3.org/2000/svg">
<g clip-path="url(#clip0_31_1620)">
<path d="M20.3744 45.9605V24.0669H10.9106C10.9106 20.5602 11.5798 17.6221 12.9181 15.2526C14.2564 12.7885 16.7418 10.9403 20.3744 9.70817V0.325195C17.411 0.704308 14.6388 1.60469 12.0578 3.02635C9.57235 4.35325 7.42149 6.05925 5.60522 8.14435C3.78895 10.2294 2.35507 12.6463 1.30354 15.3948C0.347611 18.1434 -0.0825576 21.0815 0.0130354 24.2091V45.9605H20.3744ZM50.9164 45.9605V24.0669H41.4527C41.4527 20.5602 42.1217 17.6221 43.4601 15.2526C44.7985 12.7885 47.2837 10.9403 50.9164 9.70817V0.325195C47.9531 0.704308 45.1807 1.60469 42.5999 3.02635C40.1143 4.35325 37.9635 6.05925 36.1473 8.14435C34.331 10.2294 32.8971 12.6463 31.8455 15.3948C30.8896 18.1434 30.4594 21.0815 30.555 24.2091V45.9605H50.9164Z" fill="white"/>
</g>
<defs>
<clipPath id="clip0_31_1620">
<rect width="51" height="46" fill="white"/>
</clipPath>
</defs>
</svg>
