<svg width="141" height="27" viewBox="0 0 141 27" fill="none" xmlns="http://www.w3.org/2000/svg">
<path d="M44.3639 9.35226H48.3515C48.2291 8.26613 47.9318 7.30263 47.4596 6.46175C46.9873 5.62088 46.3839 4.92016 45.6494 4.35958C44.9324 3.78147 44.1103 3.34351 43.1833 3.0457C42.2739 2.7479 41.3033 2.599 40.2714 2.599C38.8372 2.599 37.543 2.85301 36.3887 3.36103C35.2519 3.86906 34.29 4.56979 33.5029 5.46322C32.7158 6.35665 32.1125 7.40774 31.6928 8.61649C31.273 9.80773 31.0631 11.1041 31.0631 12.5056C31.0631 13.872 31.273 15.1507 31.6928 16.3421C32.1125 17.5157 32.7158 18.5406 33.5029 19.4164C34.29 20.2924 35.2519 20.9843 36.3887 21.4924C37.543 21.9829 38.8372 22.2282 40.2714 22.2282C41.4257 22.2282 42.4838 22.053 43.4457 21.7026C44.4077 21.3522 45.2471 20.8442 45.9643 20.1784C46.6813 19.5128 47.2584 18.707 47.6956 17.761C48.133 16.815 48.404 15.7551 48.509 14.5815H44.5213C44.3639 15.8428 43.9267 16.8588 43.2096 17.6297C42.5101 18.4004 41.5306 18.7858 40.2714 18.7858C39.3444 18.7858 38.5574 18.6106 37.9102 18.2603C37.2631 17.8924 36.7385 17.4106 36.3362 16.815C35.934 16.2194 35.6366 15.5537 35.4442 14.8179C35.2693 14.0646 35.1819 13.2939 35.1819 12.5056C35.1819 11.6822 35.2693 10.8851 35.4442 10.1143C35.6366 9.3435 35.934 8.66029 36.3362 8.06467C36.7385 7.45153 37.2631 6.96978 37.9102 6.61942C38.5574 6.25154 39.3444 6.0676 40.2714 6.0676C40.7786 6.0676 41.2595 6.15519 41.7142 6.33037C42.1865 6.48804 42.6062 6.71577 42.9735 7.01358C43.3408 7.31139 43.6469 7.66175 43.8917 8.06467C44.1365 8.45007 44.2939 8.87926 44.3639 9.35226ZM54.2336 15.0282C54.2336 14.4851 54.2861 13.9508 54.391 13.4252C54.4959 12.8997 54.6708 12.4355 54.9157 12.0325C55.178 11.6296 55.5191 11.3055 55.9388 11.0602C56.3585 10.7975 56.8832 10.6661 57.5129 10.6661C58.1425 10.6661 58.6672 10.7975 59.0869 11.0602C59.5242 11.3055 59.8652 11.6296 60.1101 12.0325C60.3724 12.4355 60.556 12.8997 60.661 13.4252C60.7659 13.9508 60.8184 14.4851 60.8184 15.0282C60.8184 15.5712 60.7659 16.1055 60.661 16.6311C60.556 17.1391 60.3724 17.6034 60.1101 18.0237C59.8652 18.4267 59.5242 18.7508 59.0869 18.9961C58.6672 19.2412 58.1425 19.3639 57.5129 19.3639C56.8832 19.3639 56.3585 19.2412 55.9388 18.9961C55.5191 18.7508 55.178 18.4267 54.9157 18.0237C54.6708 17.6034 54.4959 17.1391 54.391 16.6311C54.2861 16.1055 54.2336 15.5712 54.2336 15.0282ZM50.5083 15.0282C50.5083 16.1143 50.6745 17.0953 51.0068 17.9712C51.339 18.8471 51.8113 19.6004 52.4234 20.2311C53.0355 20.8442 53.7701 21.3172 54.627 21.6501C55.484 21.9829 56.4459 22.1493 57.5129 22.1493C58.5797 22.1493 59.5416 21.9829 60.3986 21.6501C61.2731 21.3172 62.0164 20.8442 62.6286 20.2311C63.2407 19.6004 63.7129 18.8471 64.0452 17.9712C64.3775 17.0953 64.5437 16.1143 64.5437 15.0282C64.5437 13.9421 64.3775 12.961 64.0452 12.0851C63.7129 11.1917 63.2407 10.4384 62.6286 9.82525C62.0164 9.19459 61.2731 8.71285 60.3986 8.38C59.5416 8.02963 58.5797 7.85446 57.5129 7.85446C56.4459 7.85446 55.484 8.02963 54.627 8.38C53.7701 8.71285 53.0355 9.19459 52.4234 9.82525C51.8113 10.4384 51.339 11.1917 51.0068 12.0851C50.6745 12.961 50.5083 13.9421 50.5083 15.0282ZM79.6895 21.8077V8.22233H75.9642V15.3435C75.9642 16.7274 75.7368 17.7259 75.2821 18.3391C74.8274 18.9347 74.0928 19.2325 73.0784 19.2325C72.1864 19.2325 71.5656 18.961 71.2158 18.4179C70.866 17.8574 70.6911 17.0164 70.6911 15.8953V8.22233H66.9658V16.5785C66.9658 17.4194 67.0358 18.1902 67.1757 18.8909C67.3331 19.5742 67.5954 20.161 67.9627 20.6515C68.3301 21.1245 68.8284 21.4924 69.4581 21.7551C70.1052 22.0179 70.9273 22.1493 71.9241 22.1493C72.7111 22.1493 73.4807 21.9742 74.2328 21.6238C74.9847 21.2734 75.597 20.704 76.0692 19.9157H76.1479V21.8077H79.6895ZM82.5168 8.22233V21.8077H86.2421V15.6851C86.2421 15.0719 86.3033 14.5026 86.4258 13.9771C86.5482 13.4515 86.7493 12.996 87.0292 12.6107C87.3265 12.2077 87.7112 11.8924 88.1835 11.6646C88.6557 11.4369 89.2329 11.3231 89.915 11.3231C90.1423 11.3231 90.3784 11.3406 90.6233 11.3756C90.8681 11.3932 91.078 11.4194 91.2529 11.4544V7.98584C90.9556 7.89825 90.6845 7.85446 90.4396 7.85446C89.9674 7.85446 89.5127 7.92452 89.0754 8.06467C88.6382 8.20481 88.2272 8.40627 87.8424 8.66905C87.4576 8.9143 87.1167 9.22087 86.8193 9.58875C86.522 9.93912 86.2859 10.3245 86.111 10.745H86.0585V8.22233H82.5168ZM95.5992 17.3931H92.0576C92.0925 18.304 92.2936 19.066 92.661 19.6793C93.0457 20.2748 93.5267 20.7566 94.1038 21.1245C94.6985 21.4924 95.3718 21.7551 96.1239 21.9128C96.8759 22.0704 97.6454 22.1493 98.4325 22.1493C99.202 22.1493 99.9541 22.0704 100.689 21.9128C101.441 21.7727 102.105 21.5187 102.682 21.1508C103.26 20.7828 103.723 20.3011 104.073 19.7055C104.441 19.0923 104.624 18.3391 104.624 17.4456C104.624 16.815 104.502 16.2894 104.256 15.869C104.011 15.431 103.688 15.0719 103.286 14.7916C102.884 14.4938 102.42 14.2574 101.895 14.0822C101.388 13.907 100.864 13.7581 100.321 13.6354C99.7967 13.5129 99.2807 13.399 98.7735 13.2939C98.2663 13.1888 97.8116 13.0749 97.4093 12.9522C97.0246 12.8121 96.7097 12.6369 96.465 12.4268C96.2201 12.2165 96.0976 11.9449 96.0976 11.6121C96.0976 11.3318 96.1676 11.1128 96.3075 10.9551C96.4474 10.78 96.6136 10.6486 96.8059 10.561C97.0158 10.4734 97.2433 10.4209 97.488 10.4033C97.7329 10.3683 97.9603 10.3508 98.1701 10.3508C98.8348 10.3508 99.412 10.4822 99.9016 10.745C100.391 10.9902 100.662 11.472 100.715 12.1902H104.256C104.187 11.3493 103.968 10.6573 103.601 10.1143C103.251 9.55372 102.805 9.10701 102.263 8.77416C101.721 8.44131 101.1 8.20481 100.4 8.06467C99.718 7.92452 99.0097 7.85446 98.275 7.85446C97.5405 7.85446 96.8235 7.92452 96.1239 8.06467C95.4243 8.18729 94.7946 8.41504 94.235 8.74788C93.6753 9.0632 93.2206 9.50116 92.8708 10.0617C92.5385 10.6223 92.3723 11.3406 92.3723 12.2165C92.3723 12.8121 92.4948 13.3201 92.7396 13.7406C92.9845 14.1435 93.308 14.4851 93.7103 14.7654C94.1125 15.0282 94.5673 15.2471 95.0744 15.4223C95.5992 15.5799 96.1326 15.7201 96.6748 15.8428C98.004 16.123 99.0359 16.4033 99.7705 16.6836C100.523 16.9639 100.898 17.3844 100.898 17.9449C100.898 18.2778 100.82 18.558 100.662 18.7858C100.505 18.9961 100.304 19.1712 100.059 19.3113C99.8316 19.434 99.5693 19.5303 99.272 19.6004C98.9922 19.653 98.7211 19.6793 98.4588 19.6793C98.0914 19.6793 97.7329 19.6354 97.3831 19.5479C97.0508 19.4602 96.7535 19.3289 96.4912 19.1537C96.2288 18.961 96.0102 18.7245 95.8353 18.4442C95.6778 18.1464 95.5992 17.796 95.5992 17.3931ZM115.934 13.5566H109.873C109.891 13.2939 109.944 12.996 110.031 12.6632C110.136 12.3304 110.302 12.015 110.529 11.7172C110.774 11.4194 111.089 11.1742 111.474 10.9814C111.876 10.7712 112.375 10.6661 112.969 10.6661C113.878 10.6661 114.552 10.9114 114.99 11.4019C115.444 11.8924 115.759 12.6107 115.934 13.5566ZM109.873 15.9216H119.659C119.729 14.8705 119.642 13.8631 119.397 12.8997C119.152 11.9362 118.75 11.0778 118.19 10.3245C117.648 9.57124 116.948 8.97562 116.091 8.53766C115.234 8.08219 114.229 7.85446 113.074 7.85446C112.042 7.85446 111.098 8.03839 110.241 8.40627C109.401 8.77416 108.676 9.28218 108.063 9.93036C107.451 10.561 106.979 11.3142 106.647 12.1902C106.314 13.0661 106.148 14.0121 106.148 15.0282C106.148 16.0792 106.306 17.0427 106.621 17.9187C106.953 18.7946 107.416 19.5479 108.011 20.1784C108.605 20.8091 109.331 21.2997 110.188 21.6501C111.046 21.9829 112.007 22.1493 113.074 22.1493C114.613 22.1493 115.925 21.799 117.009 21.0982C118.094 20.3975 118.898 19.2325 119.423 17.6034H116.144C116.021 18.0237 115.688 18.4267 115.146 18.812C114.604 19.18 113.957 19.3639 113.205 19.3639C112.156 19.3639 111.352 19.0923 110.792 18.5493C110.232 18.0062 109.926 17.1304 109.873 15.9216ZM121.973 3.0457V21.8077H125.698V3.0457H121.973ZM135.322 23.4895L140.989 8.22233H137.132L134.168 17.5245H134.115L131.045 8.22233H127.085L131.833 20.9669C131.938 21.2296 131.989 21.5099 131.989 21.8077C131.989 22.2106 131.867 22.5785 131.622 22.9114C131.395 23.2442 131.037 23.4369 130.547 23.4895C130.179 23.5069 129.812 23.4982 129.445 23.4632C129.078 23.4281 128.72 23.3931 128.369 23.358V26.4325C128.755 26.4676 129.13 26.4939 129.498 26.5113C129.883 26.5464 130.267 26.5638 130.652 26.5638C131.928 26.5638 132.926 26.3274 133.643 25.8544C134.36 25.3815 134.919 24.5931 135.322 23.4895Z" fill="#333B4A"/>
<path d="M26.9559 12.4615L10.6268 23.2535V1.66953L26.9559 12.4615Z" fill="#017CFF"/>
<path d="M17.625 12.4615L1.29596 23.2535V1.66953L17.625 12.4615Z" fill="#E48D8B"/>
</svg>
