<svg width="40" height="40" viewBox="0 0 40 40" fill="none" xmlns="http://www.w3.org/2000/svg">
<path d="M15 13.75C14.9971 14.152 15.018 14.5538 15.0625 14.9532L3.37504 30.8907C3.02107 31.3728 2.85166 31.9658 2.89754 32.562C2.9434 33.1583 3.20151 33.7184 3.62504 34.1407L5.85941 36.375C6.28167 36.7985 6.84176 37.0567 7.43806 37.1025C8.03436 37.1484 8.62735 36.979 9.10941 36.625L25.0469 24.9375C25.4464 24.9822 25.8481 25.003 26.25 25C28.5464 25.0003 30.7876 24.2968 32.6719 22.9844C32.7461 22.9317 32.808 22.8633 32.853 22.7842C32.8981 22.7049 32.9252 22.6169 32.9327 22.526C32.9402 22.4353 32.9277 22.3439 32.8961 22.2584C32.8646 22.173 32.8147 22.0955 32.75 22.0313L17.9687 7.25006C17.9046 7.18538 17.8271 7.13552 17.7416 7.10395C17.6561 7.07239 17.5649 7.05991 17.474 7.06734C17.3832 7.07478 17.2951 7.10199 17.216 7.14704C17.1367 7.19211 17.0685 7.25393 17.0156 7.32818C15.7032 9.21251 14.9997 11.4537 15 13.75ZM17.7656 24.0157L14.6406 27.1407C14.4017 27.3717 14.0824 27.5009 13.75 27.5009C13.4176 27.5009 13.0984 27.3717 12.8594 27.1407C12.6246 26.9037 12.493 26.5837 12.493 26.25C12.493 25.9165 12.6246 25.5964 12.8594 25.3594L15.9844 22.2344C16.2272 22.0352 16.5356 21.9333 16.8494 21.9487C17.1632 21.964 17.4601 22.0957 17.6822 22.3178C17.9045 22.54 18.036 22.8369 18.0515 23.1507C18.0669 23.4645 17.965 23.7728 17.7656 24.0157ZM37.4844 13.125C37.6226 15.6314 36.9185 18.1119 35.4844 20.1719C35.4316 20.2462 35.3632 20.308 35.2841 20.353C35.2049 20.3982 35.1169 20.4253 35.026 20.4328C34.9352 20.4403 34.8439 20.4278 34.7585 20.3962C34.673 20.3647 34.5955 20.3148 34.5312 20.25L19.75 5.46881C19.6854 5.40464 19.6355 5.32712 19.6039 5.24165C19.5724 5.15619 19.5599 5.06487 19.5674 4.97407C19.5747 4.88327 19.602 4.79519 19.647 4.71602C19.6921 4.63683 19.7539 4.56846 19.8281 4.51568C21.4716 3.37261 23.3904 2.68878 25.3862 2.53476C27.3822 2.38073 29.3831 2.76209 31.1825 3.63949C32.9819 4.51688 34.5146 5.85853 35.6224 7.52598C36.7301 9.19342 37.373 11.1263 37.4844 13.125Z" fill="#017CFF"/>
</svg>
