<svg width="40" height="40" viewBox="0 0 40 40" fill="none" xmlns="http://www.w3.org/2000/svg">
<path d="M28.75 14V13.125C28.75 9.20312 22.8438 6.25 15 6.25C7.15625 6.25 1.25 9.20312 1.25 13.125V19.375C1.25 22.6406 5.34375 25.2344 11.25 26.0156V26.875C11.25 30.7969 17.1562 33.75 25 33.75C32.8438 33.75 38.75 30.7969 38.75 26.875V20.625C38.75 17.3906 34.7812 14.7969 28.75 14ZM11.25 23.4688V19.7656C12.4936 19.9254 13.7463 20.0037 15 20C16.2537 20.0037 17.5065 19.9254 18.75 19.7656V23.4688C17.5095 23.662 16.2555 23.7561 15 23.75C13.7445 23.7561 12.4905 23.662 11.25 23.4688ZM26.25 17.1719V19.375C26.25 20.6875 24.3125 22.0937 21.25 22.9531V19.2969C23.2656 18.8125 24.9688 18.0781 26.25 17.1719ZM3.75 19.375V17.1719C5.03125 18.0781 6.73438 18.8125 8.75 19.2969V22.9531C5.6875 22.0937 3.75 20.6875 3.75 19.375ZM13.75 26.875V26.2188L15 26.25C15.6146 26.25 16.2084 26.2344 16.7812 26.2031C17.4062 26.4219 18.0625 26.6094 18.75 26.7812V30.4531C15.6875 29.5938 13.75 28.1875 13.75 26.875ZM21.25 30.9688V27.25C22.4934 27.4131 23.746 27.4966 25 27.5C26.2537 27.5037 27.5065 27.4254 28.75 27.2656V30.9688C26.2641 31.3438 23.7359 31.3438 21.25 30.9688ZM31.25 30.4531V26.7969C33.2656 26.3125 34.9688 25.5781 36.25 24.6719V26.875C36.25 28.1875 34.3125 29.5938 31.25 30.4531Z" fill="#017CFF"/>
</svg>
