<svg width="40" height="40" viewBox="0 0 40 40" fill="none" xmlns="http://www.w3.org/2000/svg">
<path d="M36.25 8.75C36.25 9.08152 36.1183 9.39946 35.8839 9.63389C35.6495 9.8683 35.3315 10 35 10H32.5V12.5C32.5 12.8315 32.3683 13.1495 32.1339 13.3839C31.8995 13.6182 31.5815 13.75 31.25 13.75C30.9185 13.75 30.6005 13.6182 30.3661 13.3839C30.1318 13.1495 30 12.8315 30 12.5V10H27.5C27.1685 10 26.8505 9.8683 26.6161 9.63389C26.3818 9.39946 26.25 9.08152 26.25 8.75C26.25 8.41848 26.3818 8.10054 26.6161 7.86611C26.8505 7.6317 27.1685 7.5 27.5 7.5H30V5C30 4.66848 30.1318 4.35054 30.3661 4.11611C30.6005 3.8817 30.9185 3.75 31.25 3.75C31.5815 3.75 31.8995 3.8817 32.1339 4.11611C32.3683 4.35054 32.5 4.66848 32.5 5V7.5H35C35.3315 7.5 35.6495 7.6317 35.8839 7.86611C36.1183 8.10054 36.25 8.41848 36.25 8.75ZM32.5 17.375C32.1685 17.375 31.8505 17.5068 31.6161 17.7411C31.3818 17.9755 31.25 18.2935 31.25 18.625V22.2031C30.3285 21.5771 29.239 21.2449 28.125 21.25C27.0125 21.25 25.925 21.5799 24.9999 22.198C24.0749 22.8161 23.3539 23.6946 22.9281 24.7224C22.5025 25.7503 22.391 26.8812 22.6081 27.9724C22.8251 29.0635 23.3609 30.0657 24.1475 30.8525C24.9343 31.6391 25.9365 32.1749 27.0276 32.3919C28.1188 32.609 29.2498 32.4976 30.2776 32.0719C31.3054 31.6461 32.1839 30.9251 32.802 30.0001C33.4201 29.075 33.75 27.9875 33.75 26.875V18.625C33.75 18.2935 33.6183 17.9755 33.3839 17.7411C33.1495 17.5068 32.8315 17.375 32.5 17.375ZM25.375 15.5469C25.543 15.4712 25.6919 15.3591 25.8109 15.2185C25.9298 15.078 26.0158 14.9125 26.0625 14.7344C26.1154 14.5238 26.1144 14.3031 26.0598 14.0929C26.0053 13.8827 25.8986 13.6896 25.75 13.5312C25.631 13.4199 25.4935 13.33 25.3438 13.2656C24.4951 12.8539 23.7789 12.2126 23.2763 11.4144C22.7736 10.6163 22.5046 9.69322 22.5 8.75C22.5 8.50446 22.5158 8.25917 22.5469 8.01562C22.5838 7.82401 22.5746 7.6264 22.5203 7.43899C22.466 7.25157 22.368 7.07971 22.2344 6.9375C22.081 6.77548 21.8874 6.6569 21.6734 6.59379C21.4594 6.53068 21.2324 6.52527 21.0156 6.57812L12.2031 8.78125C11.9305 8.8479 11.6882 9.00436 11.5154 9.22544C11.3425 9.44651 11.249 9.71935 11.25 10V27.2031C10.3285 26.5771 9.23903 26.2449 8.125 26.25C7.01249 26.25 5.92495 26.5799 4.99993 27.198C4.07489 27.8161 3.35393 28.6946 2.92818 29.7224C2.50244 30.7503 2.39104 31.8812 2.60809 32.9724C2.82513 34.0635 3.36085 35.0657 4.14753 35.8525C4.9342 36.6391 5.93648 37.1749 7.02763 37.3919C8.11876 37.609 9.24977 37.4976 10.2776 37.0719C11.3054 36.6461 12.1839 35.9251 12.802 35.0001C13.4201 34.075 13.75 32.9875 13.75 31.875V18.4688L25.125 15.625L25.375 15.5469Z" fill="#E48D8B"/>
</svg>
