<svg width="40" height="40" viewBox="0 0 40 40" fill="none" xmlns="http://www.w3.org/2000/svg">
<path d="M33.75 7.5H8.75C8.08696 7.5 7.45108 7.76339 6.98224 8.23224C6.51339 8.70108 6.25 9.33696 6.25 10V28.75C6.25 29.0815 6.1183 29.3995 5.88389 29.6339C5.64946 29.8682 5.33152 30 5 30C4.66847 30 4.35054 29.8682 4.11611 29.6339C3.8817 29.3995 3.75 29.0815 3.75 28.75V13.75C3.75 13.4185 3.6183 13.1005 3.38389 12.8661C3.14946 12.6318 2.83152 12.5 2.5 12.5C2.16848 12.5 1.85054 12.6318 1.61611 12.8661C1.3817 13.1005 1.25 13.4185 1.25 13.75V28.75C1.25 29.7445 1.64509 30.6984 2.34835 31.4016C3.05161 32.1049 4.00544 32.5 5 32.5H32.5C33.4933 32.4959 34.4448 32.0995 35.1471 31.3971C35.8495 30.6947 36.2459 29.7432 36.25 28.75V10C36.25 9.33696 35.9866 8.70108 35.5177 8.23224C35.0489 7.76339 34.413 7.5 33.75 7.5ZM27.5 23.75H15C14.6685 23.75 14.3505 23.6182 14.1161 23.3839C13.8818 23.1495 13.75 22.8315 13.75 22.5C13.75 22.1685 13.8818 21.8505 14.1161 21.6161C14.3505 21.3818 14.6685 21.25 15 21.25H27.5C27.8315 21.25 28.1495 21.3818 28.3839 21.6161C28.6182 21.8505 28.75 22.1685 28.75 22.5C28.75 22.8315 28.6182 23.1495 28.3839 23.3839C28.1495 23.6182 27.8315 23.75 27.5 23.75ZM27.5 18.75H15C14.6685 18.75 14.3505 18.6182 14.1161 18.3839C13.8818 18.1495 13.75 17.8315 13.75 17.5C13.75 17.1685 13.8818 16.8505 14.1161 16.6161C14.3505 16.3818 14.6685 16.25 15 16.25H27.5C27.8315 16.25 28.1495 16.3818 28.3839 16.6161C28.6182 16.8505 28.75 17.1685 28.75 17.5C28.75 17.8315 28.6182 18.1495 28.3839 18.3839C28.1495 18.6182 27.8315 18.75 27.5 18.75Z" fill="#E48D8B"/>
</svg>
