<svg width="40" height="40" viewBox="0 0 40 40" fill="none" xmlns="http://www.w3.org/2000/svg">
<path d="M26.25 15.625C26.25 16.1222 26.0525 16.5993 25.7009 16.9509C25.3492 17.3025 24.8722 17.5 24.375 17.5C23.8778 17.5 23.4008 17.3025 23.0491 16.9509C22.6975 16.5993 22.5 16.1222 22.5 15.625C22.5 15.1278 22.6975 14.6507 23.0491 14.2991C23.4008 13.9475 23.8778 13.75 24.375 13.75C24.8722 13.75 25.3492 13.9475 25.7009 14.2991C26.0525 14.6507 26.25 15.1278 26.25 15.625ZM36.25 8.75V28.75V31.25C36.25 31.913 35.9866 32.5489 35.5177 33.0177C35.0489 33.4866 34.413 33.75 33.75 33.75H6.25C5.58696 33.75 4.95107 33.4866 4.48224 33.0177C4.01339 32.5489 3.75 31.913 3.75 31.25V26.25V8.75C3.75 8.08696 4.01339 7.45108 4.48224 6.98224C4.95107 6.51339 5.58696 6.25 6.25 6.25H33.75C34.413 6.25 35.0489 6.51339 35.5177 6.98224C35.9866 7.45108 36.25 8.08696 36.25 8.75ZM33.75 25.7344V8.75H6.25V23.2344L11.9844 17.5C12.455 17.0363 13.0892 16.7762 13.75 16.7762C14.4108 16.7762 15.045 17.0363 15.5156 17.5L22.5 24.4844L25.7344 21.25C26.205 20.7863 26.8393 20.5262 27.5 20.5262C28.1607 20.5262 28.795 20.7863 29.2656 21.25L33.75 25.7344Z" fill="#87CDFF"/>
</svg>
