<svg width="20" height="20" viewBox="0 0 20 20" fill="none" xmlns="http://www.w3.org/2000/svg">
<path d="M9.071 0.833047C9.414 0.0165876 10.585 0.0165887 10.929 0.833049L12.958 5.65194C13.103 5.99614 13.43 6.23131 13.806 6.2611L19.072 6.67818C19.965 6.74885 20.326 7.84884 19.647 8.4241L15.635 11.8194C15.348 12.0619 15.223 12.4425 15.31 12.805L16.536 17.8817C16.744 18.7418 15.797 19.4217 15.033 18.9608L10.524 16.2403C10.202 16.0459 9.797 16.0459 9.475 16.2403L4.967 18.9608C4.203 19.4217 3.2557 18.7418 3.4634 17.8817L4.689 12.805C4.777 12.4425 4.652 12.0619 4.365 11.8194L0.352798 8.4241C-0.327002 7.84884 0.0348016 6.74885 0.927002 6.67818L6.193 6.2611C6.569 6.23131 6.897 5.99614 7.042 5.65194L9.071 0.833047Z" fill="#E48D8B"/>
</svg>
