<svg width="40" height="40" viewBox="0 0 40 40" fill="none" xmlns="http://www.w3.org/2000/svg">
<path d="M36.25 12.4999V31.25C36.25 31.913 35.9866 32.5488 35.5177 33.0177C35.0489 33.4866 34.413 33.75 33.75 33.75H6.25C5.58696 33.75 4.95107 33.4866 4.48224 33.0177C4.01339 32.5488 3.75 31.913 3.75 31.25V12.4999C3.75 11.8369 4.01339 11.201 4.48224 10.7322C4.95107 10.2633 5.58696 9.99995 6.25 9.99995H16.9844L11.6094 4.64057C11.4101 4.39771 11.3082 4.08937 11.3236 3.77556C11.339 3.46175 11.4706 3.16488 11.6928 2.94271C11.9149 2.72055 12.2118 2.58896 12.5256 2.57355C12.8394 2.55813 13.1477 2.66 13.3906 2.85932L20 9.48432L26.6094 2.85932C26.8523 2.66 27.1606 2.55813 27.4744 2.57355C27.7882 2.58896 28.0851 2.72055 28.3072 2.94271C28.5294 3.16488 28.661 3.46175 28.6764 3.77556C28.6919 4.08937 28.59 4.39771 28.3906 4.64057L23.0156 9.99995H33.75C34.413 9.99995 35.0489 10.2633 35.5177 10.7322C35.9866 11.201 36.25 11.8369 36.25 12.4999Z" fill="#E48D8B"/>
</svg>
