<svg width="40" height="40" viewBox="0 0 40 40" fill="none" xmlns="http://www.w3.org/2000/svg">
<path d="M9.99999 21.875C10.0021 22.0397 9.97119 22.2032 9.90911 22.3558C9.84704 22.5085 9.75504 22.6471 9.63855 22.7636C9.52205 22.8801 9.38342 22.972 9.23081 23.0341C9.07821 23.0962 8.91473 23.1271 8.74999 23.125H1.87499C1.64276 23.1231 1.41543 23.0581 1.21727 22.9371C1.01912 22.816 0.857599 22.6432 0.749988 22.4375C0.649922 22.228 0.608694 21.9951 0.630711 21.764C0.652727 21.5327 0.737164 21.3118 0.874989 21.125C1.98121 19.64 3.45735 18.471 5.15624 17.7343C4.42623 17.0661 3.86534 16.2341 3.51975 15.3067C3.17416 14.3793 3.05374 13.3831 3.1684 12.4001C3.28306 11.4171 3.62953 10.4754 4.17928 9.65242C4.72903 8.82947 5.46635 8.14885 6.33056 7.66656C7.19478 7.18427 8.16116 6.91411 9.15019 6.8783C10.1392 6.8425 11.1226 7.04207 12.0194 7.46061C12.9163 7.87915 13.7009 8.50467 14.3086 9.28571C14.9165 10.0667 15.3301 10.981 15.5156 11.9531C15.5619 12.2063 15.5298 12.4676 15.4236 12.7021C15.3176 12.9366 15.1425 13.1332 14.9219 13.2656C12.901 14.464 11.364 16.3327 10.5781 18.5468C10.1907 19.6135 9.99499 20.7402 9.99999 21.875ZM39.125 21.125C38.0188 19.64 36.5426 18.471 34.8438 17.7343C35.5738 17.0661 36.1346 16.2341 36.4803 15.3067C36.8258 14.3793 36.9463 13.3831 36.8316 12.4001C36.7169 11.4171 36.3704 10.4754 35.8206 9.65242C35.2709 8.82947 34.5336 8.14885 33.6694 7.66656C32.8051 7.18427 31.8388 6.91411 30.8498 6.8783C29.8608 6.8425 28.8774 7.04207 27.9805 7.46061C27.0838 7.87915 26.2991 8.50467 25.6913 9.28571C25.0835 10.0667 24.6698 10.981 24.4844 11.9531C24.4381 12.2063 24.4701 12.4676 24.5763 12.7021C24.6824 12.9366 24.8574 13.1332 25.0781 13.2656C27.1016 14.4608 28.6395 16.3307 29.4219 18.5468C29.8093 19.6135 30.005 20.7402 30 21.875C29.9979 22.0397 30.0288 22.2032 30.0909 22.3558C30.1529 22.5085 30.2449 22.6471 30.3614 22.7636C30.4779 22.8801 30.6165 22.972 30.7691 23.0341C30.9218 23.0962 31.0853 23.1271 31.25 23.125H38.125C38.3571 23.125 38.5846 23.0603 38.7821 22.9383C38.9796 22.8162 39.1393 22.6416 39.243 22.434C39.3469 22.2263 39.3908 21.994 39.3699 21.7627C39.3491 21.5315 39.2643 21.3107 39.125 21.125ZM24.5625 27.8281C25.8065 26.8746 26.7205 25.5552 27.1761 24.0556C27.6318 22.5558 27.606 20.951 27.1026 19.4666C26.5991 17.9822 25.6434 16.6928 24.3694 15.7797C23.0954 14.8666 21.5674 14.3755 20 14.3755C18.4325 14.3755 16.9045 14.8666 15.6306 15.7797C14.3566 16.6928 13.4008 17.9822 12.8974 19.4666C12.3939 20.951 12.3682 22.5558 12.8238 24.0556C13.2794 25.5552 14.1935 26.8746 15.4375 27.8281C13.007 28.9071 11.0367 30.8111 9.87499 33.2031C9.78255 33.3932 9.74117 33.6041 9.75485 33.815C9.76855 34.026 9.83688 34.2297 9.95311 34.4062C10.0613 34.5873 10.2146 34.7372 10.3982 34.8413C10.5817 34.9455 10.789 35.0001 11 35H29C29.2109 35.0001 29.4183 34.9455 29.6019 34.8413C29.7854 34.7372 29.9386 34.5873 30.0469 34.4062C30.1631 34.2297 30.2314 34.026 30.2451 33.815C30.2588 33.6041 30.2174 33.3932 30.125 33.2031C28.9633 30.8111 26.9929 28.9071 24.5625 27.8281Z" fill="#017CFF"/>
</svg>
